<svg width="145" height="145" viewBox="0 0 145 145" fill="none" xmlns="http://www.w3.org/2000/svg">
<path d="M63.9518 126.874C39.4188 103.334 25.458 58.8782 21.5442 39.5927C21.4572 34.3733 51.1664 6.38463 70.416 11.8115C97.8851 30.465 118.263 83.4836 123.04 94.1811C126.861 102.739 123.152 106.681 120.82 107.582C108.939 114.102 83.8178 127.904 78.389 130.945C71.6029 134.746 68.6413 132.352 63.9518 126.874Z" fill="#E6E6E6"/>
<path d="M63.5042 126.748C38.9712 103.208 25.0104 58.7521 21.0966 39.4665C21.0096 34.2471 50.7188 6.25848 69.9684 11.6854C97.4375 30.3388 117.816 83.3575 122.592 94.0549C126.413 102.613 122.705 106.554 120.373 107.455C108.491 113.976 83.3703 127.777 77.9414 130.818C71.1554 134.62 68.1937 132.226 63.5042 126.748Z" fill="#E6E6E6"/>
<path d="M121.557 93.763C55.6265 94.7086 32.9445 50.5991 29.8447 28.4261C27.3771 29.8084 22.9358 36.3486 21.0236 39.446C26.0252 75.1424 49.7696 108.85 60.7408 123.372C69.5178 134.989 76.5484 133.023 78.9665 130.588L117.215 109.163C126.099 104.186 123.811 96.8228 121.557 93.763Z" fill="#D9D9D9"/>
<circle cx="63.6348" cy="56.1344" r="20.5" transform="rotate(15.7443 63.6348 56.1344)" fill="#D9D9D9"/>
<circle cx="64.2517" cy="55.7888" r="15" transform="rotate(15.7443 64.2517 55.7888)" fill="#D9D9D9"/>
</svg>
